<svg xmlns="http://www.w3.org/2000/svg" width="40" height="40">
    <g>
        <path style=" stroke:none;fill-rule:nonzero;fill:rgb(0%,0%,0%);fill-opacity:1;"
              d="M 18 0.328125 C 16.90625 0.75 15.734375 1.9375 15.359375 2.96875 L 15.078125 3.75 L 10.625 3.75 L 10.625 6.875 L 8.640625 6.875 C 6.390625 6.875 5.890625 7.046875 5.3125 8 C 5 8.5 5 8.828125 5 23.4375 C 5 38.046875 5 38.375 5.3125 38.875 C 5.484375 39.15625 5.84375 39.515625 6.125 39.6875 C 6.625 39.984375 6.9375 40 20 40 C 33.0625 40 33.375 39.984375 33.875 39.6875 C 34.15625 39.515625 34.515625 39.15625 34.6875 38.875 C 35 38.375 35 38.046875 35 23.4375 C 35 8.828125 35 8.5 34.6875 8 C 34.109375 7.046875 33.609375 6.875 31.375 6.875 L 29.375 6.875 L 29.375 3.75 L 24.921875 3.75 L 24.640625 2.96875 C 24.265625 1.90625 23.09375 0.75 21.953125 0.328125 C 20.796875 -0.109375 19.140625 -0.109375 18 0.328125 Z M 21.25 3.015625 C 21.984375 3.5 22.328125 4.15625 22.4375 5.28125 L 22.546875 6.25 L 26.875 6.25 L 26.875 10 L 13.125 10 L 13.125 6.25 L 17.453125 6.25 L 17.5625 5.28125 C 17.671875 4.15625 18.015625 3.5 18.75 3.015625 C 19.453125 2.53125 20.546875 2.53125 21.25 3.015625 Z M 10.625 10.9375 L 10.625 12.5 L 29.375 12.5 L 29.375 9.375 L 32.5 9.375 L 32.5 37.5 L 7.5 37.5 L 7.5 9.375 L 10.625 9.375 Z M 10.625 10.9375 "/>
        <path style=" stroke:none;fill-rule:nonzero;fill:rgb(0%,0%,0%);fill-opacity:1;"
              d="M 19.0625 4.0625 C 18.859375 4.265625 18.75 4.578125 18.75 5 C 18.75 5.828125 19.171875 6.25 20 6.25 C 20.421875 6.25 20.734375 6.140625 20.9375 5.9375 C 21.140625 5.734375 21.25 5.421875 21.25 5 C 21.25 4.578125 21.140625 4.265625 20.9375 4.0625 C 20.734375 3.859375 20.421875 3.75 20 3.75 C 19.578125 3.75 19.265625 3.859375 19.0625 4.0625 Z M 19.0625 4.0625 "/>
        <path style=" stroke:none;fill-rule:nonzero;fill:rgb(0%,0%,0%);fill-opacity:1;"
              d="M 10.625 17.5 L 10.625 18.75 L 13.125 18.75 L 13.125 16.25 L 10.625 16.25 Z M 10.625 17.5 "/>
        <path style=" stroke:none;fill-rule:nonzero;fill:rgb(0%,0%,0%);fill-opacity:1;"
              d="M 15.625 17.5 L 15.625 18.75 L 29.375 18.75 L 29.375 16.25 L 15.625 16.25 Z M 15.625 17.5 "/>
        <path style=" stroke:none;fill-rule:nonzero;fill:rgb(0%,0%,0%);fill-opacity:1;"
              d="M 10.625 22.5 L 10.625 23.75 L 13.125 23.75 L 13.125 21.25 L 10.625 21.25 Z M 10.625 22.5 "/>
        <path style=" stroke:none;fill-rule:nonzero;fill:rgb(0%,0%,0%);fill-opacity:1;"
              d="M 15.625 22.5 L 15.625 23.75 L 29.375 23.75 L 29.375 21.25 L 15.625 21.25 Z M 15.625 22.5 "/>
        <path style=" stroke:none;fill-rule:nonzero;fill:rgb(0%,0%,0%);fill-opacity:1;"
              d="M 10.625 27.5 L 10.625 28.75 L 13.125 28.75 L 13.125 26.25 L 10.625 26.25 Z M 10.625 27.5 "/>
        <path style=" stroke:none;fill-rule:nonzero;fill:rgb(0%,0%,0%);fill-opacity:1;"
              d="M 15.625 27.5 L 15.625 28.75 L 29.375 28.75 L 29.375 26.25 L 15.625 26.25 Z M 15.625 27.5 "/>
    </g>
</svg>
