<svg xmlns="http://www.w3.org/2000/svg" width="40" height="40">
    <g>
        <path style=" stroke:none;fill-rule:nonzero;fill:rgb(0%,0%,0%);fill-opacity:1;"
              d="M 0 20 L 0 40 L 3.484375 40 C 6.5 39.984375 6.890625 39.96875 6.484375 39.78125 C 5.84375 39.5 5.1875 38.703125 5.078125 38.078125 C 5.03125 37.796875 5.015625 31.03125 5.03125 23.015625 C 5.078125 8.59375 5.078125 8.453125 5.40625 8.03125 C 6.125 7.0625 6.40625 6.953125 8.609375 6.90625 L 10.625 6.84375 L 10.625 3.75 L 15.109375 3.75 L 15.40625 3.09375 C 16.0625 1.640625 17.015625 0.765625 18.5625 0.21875 C 19.046875 0.046875 17.640625 0.015625 9.578125 0 L 0 0 Z M 0 20 "/>
        <path style=" stroke:none;fill-rule:nonzero;fill:rgb(0%,0%,0%);fill-opacity:1;"
              d="M 21.4375 0.21875 C 22.984375 0.765625 23.9375 1.640625 24.59375 3.09375 L 24.890625 3.75 L 29.375 3.75 L 29.375 6.84375 L 31.390625 6.90625 C 33.59375 6.953125 33.875 7.0625 34.59375 8.03125 C 34.921875 8.453125 34.921875 8.59375 34.96875 23.015625 C 34.984375 31.03125 34.96875 37.796875 34.921875 38.078125 C 34.8125 38.703125 34.15625 39.5 33.515625 39.78125 C 33.109375 39.96875 33.5 39.984375 36.53125 40 L 40 40 L 40 0 L 30.4375 0 C 22.359375 0.015625 20.953125 0.046875 21.4375 0.21875 Z M 21.4375 0.21875 "/>
        <path style=" stroke:none;fill-rule:nonzero;fill:rgb(0%,0%,0%);fill-opacity:1;"
              d="M 18.984375 2.71875 C 17.96875 3.171875 17.5 4.046875 17.5 5.40625 L 17.5 6.25 L 13.125 6.25 L 13.125 10 L 26.875 10 L 26.875 6.25 L 22.53125 6.25 L 22.46875 5.15625 C 22.40625 4 22.171875 3.515625 21.375 2.921875 C 20.84375 2.53125 19.609375 2.421875 18.984375 2.71875 Z M 20.859375 4.140625 C 21.640625 4.90625 21.09375 6.25 20 6.25 C 19.703125 6.25 19.375 6.109375 19.140625 5.859375 C 18.890625 5.625 18.75 5.296875 18.75 5 C 18.75 4.703125 18.890625 4.375 19.140625 4.140625 C 19.375 3.890625 19.703125 3.75 20 3.75 C 20.296875 3.75 20.625 3.890625 20.859375 4.140625 Z M 20.859375 4.140625 "/>
        <path style=" stroke:none;fill-rule:nonzero;fill:rgb(0%,0%,0%);fill-opacity:1;"
              d="M 7.5 23.4375 L 7.5 37.5 L 32.5 37.5 L 32.5 9.375 L 29.375 9.375 L 29.375 12.5 L 10.625 12.5 L 10.625 9.375 L 7.5 9.375 Z M 13.125 17.5 L 13.125 18.75 L 10.625 18.75 L 10.625 16.25 L 13.125 16.25 Z M 29.375 17.5 L 29.375 18.75 L 15.625 18.75 L 15.625 16.25 L 29.375 16.25 Z M 13.125 22.5 L 13.125 23.75 L 10.625 23.75 L 10.625 21.25 L 13.125 21.25 Z M 29.375 22.5 L 29.375 23.75 L 15.625 23.75 L 15.625 21.25 L 29.375 21.25 Z M 13.125 27.5 L 13.125 28.75 L 10.625 28.75 L 10.625 26.25 L 13.125 26.25 Z M 29.375 27.5 L 29.375 28.75 L 15.625 28.75 L 15.625 26.25 L 29.375 26.25 Z M 29.375 27.5 "/>
    </g>
</svg>
